<svg id="Layer_1" data-name="Layer 1" xmlns="http://www.w3.org/2000/svg" xmlns:xlink="http://www.w3.org/1999/xlink" viewBox="0 0 482.21 101.4"><defs><style>.cls-1{fill:#898989;}.cls-2{fill:#aaaaa9;}.cls-2,.cls-3{stroke:#fff;stroke-miterlimit:10;stroke-width:0.25px;}.cls-3{fill:url(#linear-gradient);}</style><linearGradient id="linear-gradient" x1="46.18" y1="4.54" x2="16.63" y2="97.49" gradientUnits="userSpaceOnUse"><stop offset="0" stop-color="#c4e40d"/><stop offset="1" stop-color="#80c41c"/></linearGradient></defs><path class="cls-1" d="M141.86,62.16V77.43H138V41.93h3.91v17h18.25v-17H164v35.5h-3.91V62.16Z" transform="translate(-3.85 -2.98)"/><path class="cls-1" d="M195.91,73.57A14.31,14.31,0,0,1,185.11,78c-8.72,0-14.2-5.88-14.2-13.08A13.21,13.21,0,0,1,184.5,51.62c6.49,0,12.58,4.05,12.68,13.13H174.72v.41c0,5.42,4.05,9.48,10.39,9.48a12.39,12.39,0,0,0,8.62-3.35ZM175.12,61.81h18.1C192.06,56.54,188.1,55,184.6,55A9.53,9.53,0,0,0,175.12,61.81Z" transform="translate(-3.85 -2.98)"/><path class="cls-1" d="M227.55,77.43h-3.8v-5a11.06,11.06,0,0,1-10,5.57c-7.66,0-12.58-5.93-12.58-13.18s4.92-13.18,12.58-13.18a11.06,11.06,0,0,1,10,5.57v-5h3.8Zm-13.49-2.84a9.79,9.79,0,0,0,0-19.58c-5.73,0-9.12,4.37-9.12,9.79S208.33,74.59,214.06,74.59Z" transform="translate(-3.85 -2.98)"/><path class="cls-1" d="M239.77,77.43H236V40.77h3.8Z" transform="translate(-3.85 -2.98)"/><path class="cls-1" d="M253.11,69.82c0,3.65,1.87,4.77,3.75,4.77s3.65-1.17,3.65-3.3a5.1,5.1,0,0,0-.35-1.82h3.5a6.86,6.86,0,0,1,.4,2.28c0,3.5-2.64,6.23-7.25,6.23-3.75,0-7.5-1.77-7.5-8.41V55.22h-4.26v-3h4.26l.91-7.66h2.89v7.66h8.21v3h-8.21Z" transform="translate(-3.85 -2.98)"/><path class="cls-1" d="M287.64,63.08c0-6.14-3.24-8.07-6.49-8.07-2.79,0-8.52,2-8.62,10.15V77.43h-3.8V40.77h3.8V57.55a9,9,0,0,1,8.87-5.93c5.48,0,10,3.19,10,11.46V77.43h-3.8Z" transform="translate(-3.85 -2.98)"/><path class="cls-1" d="M316.49,52.18h4.41l-15.56,36.6h-3.86l4.87-11.71-10.9-24.89h4.36l8.57,20.58Z" transform="translate(-3.85 -2.98)"/><path class="cls-1" d="M342.2,50.55c0,2.13.86,4.72,5.93,6.39l6.19,2c4.36,1.42,8.32,4.77,8.32,9.38,0,5.32-4.57,9.63-11.92,9.63-6.64,0-11-3.65-12.52-7.45l2.38-.66c1.11,2.89,4.61,5.93,10.09,5.93,6,0,9.48-3.39,9.48-7.35s-3.45-6.24-6.59-7.25l-6.19-2c-6.44-2.08-7.7-5.63-7.65-8.52,0-5.83,5.17-9.27,11-9.27,5.63,0,9.74,3,10.85,7.3l-2.23.71c-.86-3.5-4.16-5.83-8.62-5.83C346.11,43.56,342.2,46.14,342.2,50.55Z" transform="translate(-3.85 -2.98)"/><path class="cls-1" d="M371.41,58.61a11.73,11.73,0,0,1,10.9-6.89c7.71,0,12.93,5.83,12.93,13.18,0,7.15-5,13.08-13,13.08a11.52,11.52,0,0,1-10.85-6.84V88.78h-2.33V52.28h2.33Zm-.05,6.29a10.66,10.66,0,0,0,10.9,11c6.54,0,10.6-5,10.6-11s-4.26-11.1-10.65-11.1A10.76,10.76,0,0,0,371.36,64.9Z" transform="translate(-3.85 -2.98)"/><path class="cls-1" d="M413,51.72A13.13,13.13,0,1,1,413,78a13.13,13.13,0,1,1,0-26.26Zm0,24.19a11.06,11.06,0,1,0-10.8-11A11,11,0,0,0,413,75.91Z" transform="translate(-3.85 -2.98)"/><path class="cls-1" d="M444.07,51.72a13.13,13.13,0,1,1,0,26.26,13.13,13.13,0,1,1,0-26.26Zm0,24.19a11.06,11.06,0,1,0-10.8-11A11,11,0,0,0,444.07,75.91Z" transform="translate(-3.85 -2.98)"/><path class="cls-1" d="M483.73,63c0-7.2-4.26-9.18-8.27-9.18-3,0-9,2.23-9.13,10.65v13H464V52.28h2.33v5.83a9.89,9.89,0,0,1,9.23-6.39c5.28,0,10.5,2.64,10.5,11.26V77.43h-2.33Z" transform="translate(-3.85 -2.98)"/><path class="cls-2" d="M95,31.64C77,31.64,54,42.1,43.51,55s2.73,27.15-6.94,48.83C60.06,82.33,98.25,67.9,108.7,55S113,31.64,95,31.64ZM64.65,71.85l4-4.94,5.95-7.34c.85-.32,8.85-2.62,12.14-6.68s2.7-9.18-1.11-9.18-12.78,5.22-16,9.18c-2.73,3.38-.94,6,1.46,6.72q-3,3.7-6,7.42l-4,4.89c-11.53-.46-14.91-8-7.45-17.18,7.69-9.51,24-17.21,36.45-17.21s16.29,7.7,8.59,17.21C91.52,63.64,76.72,71,64.65,71.85Z" transform="translate(-3.85 -2.98)"/><path class="cls-3" d="M36.57,3.1A32.6,32.6,0,0,0,4,35.7c0,18,24.72,37.87,32.6,68.13,6.08-30,32.59-50.13,32.59-68.13A32.6,32.6,0,0,0,36.57,3.1Zm2.19,56.11V42.07c.58-.45,6.73-3.65,6.73-9.31S40.76,19.94,37,19.94,28.4,27.23,28.4,32.76c0,4.7,3.89,8.3,6.9,9.37V59.3c-11.9-.64-21.37-11.13-21.37-24,0-13.26,10.09-24,22.53-24S59,22.07,59,35.33C59,47.76,50.11,58,38.76,59.21Z" transform="translate(-3.85 -2.98)"/></svg>