<svg id="Layer_1" data-name="Layer 1" xmlns="http://www.w3.org/2000/svg" xmlns:xlink="http://www.w3.org/1999/xlink" viewBox="0 0 284.19 267.94"><defs><style>.cls-1{fill:#898989;}.cls-2{fill:#e8e8e8;}.cls-3{fill:#aaaaa9;}.cls-3,.cls-4,.cls-5{stroke:#fff;stroke-miterlimit:10;stroke-width:0.25px;}.cls-4{fill:url(#linear-gradient);}.cls-5{fill:#d8d8d8;}</style><linearGradient id="linear-gradient" x1="135.65" y1="7.22" x2="69.52" y2="215.28" gradientUnits="userSpaceOnUse"><stop offset="0" stop-color="#c4e40d"/><stop offset="1" stop-color="#80c41c"/></linearGradient></defs><path class="cls-1" d="M6,250.75v12.08H3V234.75H6v13.44H20.48V234.75h3.09v28.08H20.48V250.75Z" transform="translate(-2.95 -3.88)"/><path class="cls-1" d="M48.8,259.78a11.34,11.34,0,0,1-8.55,3.49c-6.9,0-11.23-4.65-11.23-10.35a10.45,10.45,0,0,1,10.75-10.51c5.14,0,9.95,3.21,10,10.39H32v.32c0,4.29,3.21,7.5,8.22,7.5A9.79,9.79,0,0,0,47.07,258Zm-16.45-9.31H46.67a6.51,6.51,0,0,0-6.82-5.41A7.53,7.53,0,0,0,32.35,250.47Z" transform="translate(-2.95 -3.88)"/><path class="cls-1" d="M73.83,262.83h-3v-4a8.75,8.75,0,0,1-7.94,4.41c-6.06,0-10-4.69-10-10.43s3.89-10.43,10-10.43a8.77,8.77,0,0,1,7.94,4.41v-4h3Zm-10.67-2.25a7.74,7.74,0,0,0,0-15.48c-4.54,0-7.22,3.45-7.22,7.74S58.62,260.58,63.16,260.58Z" transform="translate(-2.95 -3.88)"/><path class="cls-1" d="M83.49,262.83h-3v-29h3Z" transform="translate(-2.95 -3.88)"/><path class="cls-1" d="M94,256.81c0,2.89,1.49,3.77,3,3.77A2.6,2.6,0,0,0,99.9,258a4.05,4.05,0,0,0-.28-1.45h2.77a5.4,5.4,0,0,1,.32,1.81c0,2.77-2.09,4.93-5.74,4.93-3,0-5.93-1.4-5.93-6.66V245.26H87.67v-2.41H91l.72-6.06H94v6.06h6.5v2.41H94Z" transform="translate(-2.95 -3.88)"/><path class="cls-1" d="M121.36,251.48c0-4.86-2.57-6.38-5.13-6.38-2.21,0-6.74,1.56-6.82,8v9.71h-3v-29h3V247.1a7.15,7.15,0,0,1,7-4.69c4.33,0,7.94,2.53,7.94,9.07v11.35h-3Z" transform="translate(-2.95 -3.88)"/><path class="cls-1" d="M144.19,242.85h3.49l-12.32,29h-3.05l3.85-9.27-8.62-19.7H131l6.78,16.29Z" transform="translate(-2.95 -3.88)"/><path class="cls-1" d="M164.52,241.57c0,1.68.69,3.73,4.7,5.05l4.89,1.61c3.45,1.12,6.58,3.77,6.58,7.42,0,4.21-3.61,7.62-9.43,7.62-5.25,0-8.7-2.89-9.91-5.9l1.89-.52c.88,2.29,3.65,4.7,8,4.7,4.74,0,7.5-2.69,7.5-5.82S176,250.8,173.51,250l-4.89-1.6c-5.1-1.65-6.1-4.45-6.06-6.74,0-4.61,4.09-7.34,8.7-7.34s7.71,2.36,8.59,5.77l-1.77.57c-.68-2.77-3.29-4.62-6.82-4.62S164.52,238.08,164.52,241.57Z" transform="translate(-2.95 -3.88)"/><path class="cls-1" d="M187.63,248a9.27,9.27,0,0,1,8.62-5.46c6.1,0,10.23,4.61,10.23,10.43,0,5.66-3.93,10.35-10.27,10.35a9.11,9.11,0,0,1-8.58-5.41v14h-1.85V242.93h1.85Zm0,5a8.43,8.43,0,0,0,8.62,8.71c5.18,0,8.39-3.93,8.39-8.71s-3.37-8.78-8.43-8.78A8.51,8.51,0,0,0,187.59,252.92Z" transform="translate(-2.95 -3.88)"/><path class="cls-1" d="M220.56,242.49a10.39,10.39,0,1,1,0,20.78,10.39,10.39,0,1,1,0-20.78Zm0,19.14a8.75,8.75,0,1,0-8.54-8.71A8.71,8.71,0,0,0,220.56,261.63Z" transform="translate(-2.95 -3.88)"/><path class="cls-1" d="M245.11,242.49a10.39,10.39,0,1,1,0,20.78,10.39,10.39,0,1,1,0-20.78Zm0,19.14a8.75,8.75,0,1,0-8.54-8.71A8.71,8.71,0,0,0,245.11,261.63Z" transform="translate(-2.95 -3.88)"/><path class="cls-1" d="M276.48,251.4c0-5.7-3.37-7.26-6.54-7.26-2.36,0-7.14,1.76-7.22,8.42v10.27h-1.84v-19.9h1.84v4.62a7.84,7.84,0,0,1,7.3-5.06c4.18,0,8.31,2.09,8.31,8.91v11.43h-1.85Z" transform="translate(-2.95 -3.88)"/><path class="cls-2" d="M44.8,133.28" transform="translate(-2.95 -3.88)"/><path class="cls-3" d="M245,67.88c-40.3,0-91.92,23.41-115.31,52.29s6.12,60.76-15.54,109.3c52.58-48.12,138.08-80.42,161.47-109.3S285.28,67.88,245,67.88Zm-68,90,9-11.06,13.31-16.44c1.9-.71,19.82-5.85,27.18-14.94,7.17-8.86,6.05-20.56-2.48-20.56s-28.61,11.7-35.78,20.56c-6.12,7.55-2.09,13.32,3.28,15L178,147.09,169.15,158c-25.81-1-33.38-17.86-16.69-38.47,17.23-21.27,53.76-38.51,81.61-38.51s36.45,17.24,19.23,38.51C237.15,139.52,204,155.92,177,157.89Z" transform="translate(-2.95 -3.88)"/><path class="cls-4" d="M114.14,4a73,73,0,0,0-73,73c0,40.3,55.32,84.78,73,152.51,13.62-67.15,73-112.21,73-152.51A73,73,0,0,0,114.14,4ZM119,129.59V91.21c1.32-1,15.08-8.15,15.08-20.83,0-12.37-10.6-28.69-19.13-28.69S95.86,58,95.86,70.38c0,10.53,8.7,18.58,15.45,21V129.8c-26.64-1.43-47.84-24.91-47.84-53.67,0-29.68,22.58-53.74,50.42-53.74s50.42,24.06,50.42,53.74C164.31,104,144.46,126.84,119,129.59Z" transform="translate(-2.95 -3.88)"/><ellipse class="cls-5" cx="111.46" cy="223.99" rx="11.58" ry="1.6"/></svg>